<svg xmlns="http://www.w3.org/2000/svg" viewBox="0 0 1254 1254" width="1254" height="1254"><path fill="#3bb0ef" fill-rule="evenodd" d="M664,983 L664,1091 L681,1092 L664,1091Z M761,693 L726,794 L681,939 L963,938 L940,831 L882,793 L803,745Z M489,693 L448,746 L312,831 L296,896 L287,940 L569,940 L569,936 L544,861 L529,810Z M615,219 L592,222 L566,228 L546,235 L525,245 L506,258 L489,275 L480,287 L464,317 L459,334 L456,354 L456,390 L465,455 L464,456 L455,447 L443,450 L443,458 L450,516 L473,554 L485,556 L487,558 L501,618 L502,694 L550,735 L606,779 L606,781 L588,810 L588,813 L601,835 L603,841 L581,939 L663,940 L670,939 L647,842 L647,838 L661,816 L663,810 L649,788 L645,779 L683,750 L748,695 L748,686 L703,685 L749,643 L749,637 L758,625 L769,557 L771,555 L778,555 L803,516 L811,459 L811,450 L799,447 L794,452 L793,451 L803,390 L804,347 L800,326 L791,302 L783,288 L770,271 L756,258 L743,249 L707,232 L663,221 L645,219Z"/><path fill="#0b3b69" fill-rule="evenodd" d="M653,865 L660,904 L664,939 L608,940 L670,939Z M748,345 L716,359 L657,388 L648,485 L635,503 L639,593 L626,606 L634,704 L624,715 L585,714 L558,686 L546,686 L580,739 L585,744 L629,779 L645,786 L652,791 L649,788 L645,779 L683,750 L748,695 L748,686 L703,686 L695,693 L694,691 L747,622 L761,550 L775,543 L793,513 L800,461 L774,485 L772,484 L774,473 L775,388Z"/><path fill="#0c192e" fill-rule="evenodd" d="M750,686 L749,695 L683,751 L646,779 L650,788 L665,811 L648,840 L670,938 L680,938 L719,811 L760,693 L756,692Z M501,686 L495,692 L491,693 L530,808 L571,939 L580,939 L601,843 L601,838 L586,811 L605,780 L501,695Z"/></svg>